# xmcd
#
# Track frame offsets:
# 150
# 16889
# 37601
# 57721
# 74014
# 97345
# 114603
# 132826
# 147433
# 164394
#
# Disc length: 2357 seconds
#
#
# Revision: 0
# Processed by: cddbd v1.5.2PL0 Copyright (c) Steve Scherf et al.
# Submitted via: FreeRIP 2.945 
#
DISCID=9309330a
DTITLE=Mario "Tano" Pugliese - Después de todo
DYEAR=2005
DGENRE=Blues/Rock/Pop
TTITLE0=Pude ser
TTITLE1=Dados cargados
TTITLE2=Just my imagination
TTITLE3=No pierdas el cielo
TTITLE4=Little Red Rooster
TTITLE5=All along the watchtower
TTITLE6=Clericot blues
TTITLE7=Raras señales
TTITLE8=Borrachos en mi puerta
TTITLE9=Zingara
EXTD=
EXTT0=
EXTT1=
EXTT2=c/Litto Nebbia
EXTT3=
EXTT4=
EXTT5=c/Litto Nebbia
EXTT6=
EXTT7=
EXTT8=
EXTT9=
PLAYORDER=
